# xmcd
# Track frame offsets:
# 150
# 18861
# 36902
# 57983
# 78422
# 95448
# 113344
# 132519
# 147605
# 165399
# 185091
# 198679
# 212133
# 229751
# 245110
# 263143
# 282767
# 302644
# 317954
# 334909
#
# Disc length: 4695 seconds
# Revision: 0
# Processed by: cddbd v1.5.2PL0 Copyright (c) Steve Scherf et al.
# Submitted via: VisiTrax 2.10.0.248 - For more info visit www.synapsa.com
#
DISCID=2b125514
DTITLE=Various Artist - 360 Degrees P1.6 Promo Radio 9-02
DYEAR=2002
DGENRE=Country
TTITLE0=Alan Jackson - Work in Progress
TTITLE1=Billy Swan - I Can Help
TTITLE2=Charlie Daniels Band - The Last Fallen Hero
TTITLE3=Darryl Singeltary - Thats Why I Sing This Way
TTITLE4=Dixie Chicks - Long Time Gone
TTITLE5=James Otto - The Ball
TTITLE6=Heather Myles - Never Had A Broken Heart
TTITLE7=Jo Dee Messina - Dare To Dream
TTITLE8=John Michael Montgomery - Til Nothing Comes Between Us
TTITLE9=Kellie Coffey - At The End Of The Day  85
TTITLE10=Kevin Denney - Cadillac Tears
TTITLE11=McBride and The Ride - Squeeze Box
TTITLE12=Michael Peterson - Modern Man
TTITLE13=Marcel - Country Rock Star
TTITLE14=Rebecca Lynn Howard - Forgive
TTITLE15=Steve Azar(s) - Waitin On Joe (S) 53
TTITLE16=Tammy Cochran - Life Happened
TTITLE17=Trick Pony - Just What I Do
TTITLE18=Travis Tritt - Strong Enough To Be Your Man (s)
TTITLE19=Ty Herndon - A Few Short Years
EXTD=
EXTT0=
EXTT1=
EXTT2=
EXTT3=
EXTT4=
EXTT5=
EXTT6=
EXTT7=
EXTT8=
EXTT9=
EXTT10=
EXTT11=
EXTT12=
EXTT13=
EXTT14=
EXTT15=
EXTT16=
EXTT17=
EXTT18=
EXTT19=
PLAYORDER=
